PathFileType	4	(X/Y/Z)	/Users/niels/Desktop/University/Third Semester/Perception and Action/Exam/Gymnastics Motion Tracking/Code for Gym Tracking/Analyzed Data/Webcam_Backflip/id5_1_baseline_Sports2D/id5_1_baseline_Sports2D_px_person00.trc
DataRate	CameraRate	NumFrames	NumMarkers	Units	OrigDataRate	OrigDataStartFrame	OrigNumFrames
29.80392156862745	29.80392156862745	9	22	m	29.80392156862745	76	153
Frame#	Time	Hip			RHip			RKnee			RAnkle			RBigToe			RSmallToe			RHeel			LHip			LKnee			LAnkle			LBigToe			LSmallToe			LHeel			Neck			Head			Nose			RShoulder			RElbow			RWrist			LShoulder			LElbow			LWrist		
		X1	Y1	Z1	X2	Y2	Z2	X3	Y3	Z3	X4	Y4	Z4	X5	Y5	Z5	X6	Y6	Z6	X7	Y7	Z7	X8	Y8	Z8	X9	Y9	Z9	X10	Y10	Z10	X11	Y11	Z11	X12	Y12	Z12	X13	Y13	Z13	X14	Y14	Z14	X15	Y15	Z15	X16	Y16	Z16	X17	Y17	Z17	X18	Y18	Z18	X19	Y19	Z19	X20	Y20	Z20	X21	Y21	Z21	X22	Y22	Z22
76	2.55	0.8960748271749857	-0.6569231631556374	0.0	0.9023756301119604	-0.6571068262598662	0.0	0.9418704286056997	-0.7528285097760207	0.0	0.8755341043694261	-0.8328006679447555	0.0	0.9049655687251557	-0.8541206302097525	0.0	0.8946196470895076	-0.8553330045830142	0.0	0.8616968321267009	-0.8421637864355067	0.0	0.8916023102464548	-0.655019551818809	0.0	0.9244288802098877	-0.748443752563628	0.0	0.8696367443874391	-0.8269896109206554	0.0	0.9025828259594422	-0.8557778938079809	0.0	0.8923065036345451	-0.8305409599449354	0.0	0.8555417819776756	-0.8369581776326181	0.0	0.9827256908440353	-0.5398606475811542	0.0	1.0447430829870956	-0.515257792654747	0.0	1.0250231090727044	-0.5455166252509316	0.0	0.9709359226318366	-0.5475948271375586	0.0	0.916594617402611	-0.5944802409329383	0.0	0.8854892044585936	-0.6450177483711301	0.0	0.9649473716913244	-0.5344589223703682	0.0	0.9164264279751201	-0.591439512075037	0.0	0.8948728419374545	-0.6371850064535678	0.0
77	2.5835526315789474	0.9023035486687284	-0.6365249505006496	0.0	0.9067477049303727	-0.6359593447214972	0.0	0.950159156910597	-0.7293781294662783	0.0	0.8767717942586486	-0.8070315549978847	0.0	0.9031900172775008	-0.8321289775576962	0.0	0.8933033976876457	-0.8331737845289761	0.0	0.8622498903998765	-0.8162918149095761	0.0	0.8989957385347223	-0.6342827753839847	0.0	0.9347174133231775	-0.7255001439581823	0.0	0.8723787328826116	-0.8024538209452823	0.0	0.9032514279054622	-0.8327173924194283	0.0	0.8947907028606471	-0.8145412295305141	0.0	0.8571773474772869	-0.8121200783658372	0.0	0.9849457356127858	-0.5179734420985449	0.0	1.0471334714621074	-0.49437939464849395	0.0	1.0271474756883783	-0.5239181584573482	0.0	0.9722095839566721	-0.5251499164412932	0.0	0.9139400216252361	-0.5690248292483048	0.0	0.8750641877724268	-0.6213014589254323	0.0	0.9676831403093353	-0.5130293017510446	0.0	0.913469299925334	-0.5653358969492823	0.0	0.8802397464852778	-0.6100078049405794	0.0
78	2.6171052631578946	0.9096809896197648	-0.6111047532550896	0.0	0.9122665388155922	-0.6101717096276457	0.0	0.9574997660741935	-0.7030285762945243	0.0	0.8798499915162923	-0.7803811894884761	0.0	0.903835887010465	-0.8094994037192002	0.0	0.8940887150909824	-0.8101845151628535	0.0	0.8644874652267547	-0.7893495629851109	0.0	0.9076347795858711	-0.6088204946988752	0.0	0.9452668603457786	-0.6995748913768028	0.0	0.8779215255891789	-0.7766202277056383	0.0	0.9073079915776875	-0.8079499952779122	0.0	0.9000783319505521	-0.795934919274966	0.0	0.8620821474630584	-0.7864003165400321	0.0	0.9873675404998477	-0.491196561052746	0.0	1.0497194652922976	-0.4675452522703831	0.0	1.0295998741442727	-0.49690086362598035	0.0	0.9741597322647824	-0.49803652017159233	0.0	0.9160774534245283	-0.5397633709793993	0.0	0.8771831550681568	-0.5924358167769899	0.0	0.9709049664454213	-0.487069391085045	0.0	0.9139590550428818	-0.5356067934036748	0.0	0.8752171722183103	-0.5778315635749682	0.0
79	2.650657894736842	0.9179350620415554	-0.5840567390907074	0.0	0.9188001635600422	-0.5831137985104843	0.0	0.9631675169877468	-0.676866371848826	0.0	0.8848600991497453	-0.7561871923619873	0.0	0.9068099658245472	-0.7892900806101587	0.0	0.896864834828622	-0.7894867640491854	0.0	0.868731492924224	-0.7647919025691448	0.0	0.9172335152985684	-0.582039015821683	0.0	0.9552575920711751	-0.6738253772416559	0.0	0.8867444292045648	-0.7529100666857488	0.0	0.9153063411868668	-0.7848750699541689	0.0	0.9089690757893873	-0.7774589022021553	0.0	0.8709320659481185	-0.7632281463577001	0.0	0.9893656618237002	-0.46227512346694505	0.0	1.0514245233564947	-0.43689209964694103	0.0	1.0317489756223421	-0.4668006968202661	0.0	0.976096123805645	-0.4690260146015825	0.0	0.9226349143650905	-0.5091147182300546	0.0	0.890243082428151	-0.5605101081531779	0.0	0.9738606292707592	-0.4596578852875941	0.0	0.9178609930443719	-0.5052283684771471	0.0	0.8802356187673431	-0.5435568024199141	0.0
80	2.6842105263157894	0.9268027878846726	-0.5581041496350985	0.0	0.9259518842049825	-0.5573153752867204	0.0	0.9667218492536362	-0.6530321204860142	0.0	0.8916432982551853	-0.7364755372818025	0.0	0.9120258354571572	-0.7729955741109473	0.0	0.9015775227234128	-0.7727158521171875	0.0	0.875082158876595	-0.744911197687249	0.0	0.9276049056273482	-0.5565508586958361	0.0	0.9642209645926906	-0.6504147779491113	0.0	0.8991097060826605	-0.7333558240533457	0.0	0.9277188729025626	-0.765413473766392	0.0	0.9221181367698371	-0.7608521776367919	0.0	0.8839971004684648	-0.7445588003402634	0.0	0.9907735446705553	-0.4336833638508896	0.0	1.0517397273553506	-0.4049155671133235	0.0	1.0332277986874103	-0.4359543280542764	0.0	0.9776823010157752	-0.4404439914885104	0.0	0.9329088929240904	-0.4785843598293403	0.0	0.911443725163218	-0.5256140228054429	0.0	0.9765068665783756	-0.4333667564907347	0.0	0.9252090380394491	-0.4765025758597858	0.0	0.8942631246863567	-0.5088005751208295	0.0
81	2.717763157894737	0.9359898453490407	-0.5350208828071956	0.0	0.9332287671030579	-0.5343499017264909	0.0	0.9680077672634044	-0.6327606798654439	0.0	0.8998250170623845	-0.7217910344568196	0.0	0.9193760199663121	-0.760646535385031	0.0	0.9081212406337469	-0.7600307088090851	0.0	0.8833539731185512	-0.7304561940810722	0.0	0.9385141985825076	-0.5339925981852183	0.0	0.9722051570591108	-0.6304585988811439	0.0	0.9150164524116609	-0.7184233892735851	0.0	0.944437802251731	-0.7499689899981854	0.0	0.9396024612073212	-0.7467156881593814	0.0	0.9010900157164105	-0.7306430945813406	0.0	0.9917017369062469	-0.4073412020658762	0.0	1.050577117442562	-0.373990397567569	0.0	1.0338210589504726	-0.4064027720910396	0.0	0.9788808747975112	-0.41397143056111024	0.0	0.9461251450091797	-0.44851076458072153	0.0	0.9374428472222416	-0.48629244666841825	0.0	0.9791438442547311	-0.40997829806447866	0.0	0.935710691753895	-0.4509525911245184	0.0	0.9150512361178463	-0.4746135671075032	0.0
82	2.751315789473684	0.9451884783323006	-0.515743609101006	0.0	0.9403307809874051	-0.5150479757007786	0.0	0.9673179675869531	-0.6165379283444938	0.0	0.9089338070449824	-0.711482777903294	0.0	0.9284236539270483	-0.7514852888467977	0.0	0.9161179640940038	-0.7506703370692293	0.0	0.8931829284634493	-0.7207226710010067	0.0	0.9495623184089369	-0.5151892793150619	0.0	0.979519563699647	-0.6143204749326753	0.0	0.9340144439942161	-0.7074517696263007	0.0	0.9644459921724553	-0.7379757563287903	0.0	0.9606308442189141	-0.7349643285281444	0.0	0.9214562403098175	-0.7205156704368241	0.0	0.9922992025227014	-0.38453740254450175	0.0	1.0479856793091047	-0.3460613959307317	0.0	1.0333498869862712	-0.37971578085102176	0.0	0.9798523240852285	-0.3906820833235409	0.0	0.961580413480259	-0.41849912097172437	0.0	0.9649947739644417	-0.4417266516122374	0.0	0.9819282584594523	-0.39040899187547184	0.0	0.9484345266589062	-0.42967922728368446	0.0	0.9390602525168618	-0.44310403296573764	0.0
83	2.7848684210526318	0.9541004604393515	-0.5006610300420679	0.0	0.9472441826631004	-0.499759789169021	0.0	0.9655576872547423	-0.6042922138142339	0.0	0.9185224272710678	-0.7043679896059731	0.0	0.9384150001406198	-0.7446621186623811	0.0	0.9250530084182345	-0.7436865798814758	0.0	0.9041161254908178	-0.7143055274989787	0.0	0.9602194835080475	-0.5004430828225973	0.0	0.9864798123334595	-0.601987232554691	0.0	0.9550934246787047	-0.6993851141381007	0.0	0.9862818164758387	-0.7285995540944029	0.0	0.9837595652469464	-0.7252641591481198	0.0	0.9437961289546413	-0.712956199233969	0.0	0.9926305245156131	-0.3659956528234331	0.0	1.0439915817816714	-0.3224796331935195	0.0	1.0317336377170774	-0.3568755652180753	0.0	0.9808770068267625	-0.37115585818959024	0.0	0.9784407286393465	-0.38858519280746956	0.0	0.9914002608158565	-0.39434913138228045	0.0	0.9847016167049761	-0.37484913819881016	0.0	0.96193845109673	-0.4137310143757404	0.0	0.9623445117389584	-0.41867913541473595	0.0
84	2.818421052631579	0.9624626387309891	-0.4897960227123189	0.0	0.9540767750267927	-0.488497141602597	0.0	0.9640415998176374	-0.5956749723227501	0.0	0.9281818153524825	-0.6994617451566203	0.0	0.9485499297418031	-0.7397020083098328	0.0	0.9344670676912026	-0.738541517885967	0.0	0.9155326445066787	-0.7100435658903808	0.0	0.970033895648981	-0.4897261170597699	0.0	0.9934089095798568	-0.5932620242745121	0.0	0.9768486171942626	-0.693385265232894	0.0	1.0085226545992083	-0.7212358535900923	0.0	1.0073429777236846	-0.7173615217478789	0.0	0.966521955170987	-0.7071914249986037	0.0	0.9927860571255813	-0.3520510098549992	0.0	1.0387417707464313	-0.3039431039562931	0.0	1.029212370863203	-0.33834495484482024	0.0	0.9822370967519182	-0.3557194993039126	0.0	0.9953479144323696	-0.3601579956578979	0.0	1.0146716484157599	-0.3494350219965672	0.0	0.9872031993571164	-0.36311789319568494	0.0	0.9748331463303962	-0.4034477542386888	0.0	0.9824113181395432	-0.405277044931507	0.0
